Coordinates
version=1
nRows=6
nColumns=34
inDegrees=yes

Units are S.I. units (second, meters, Newtons, ...)
Angles are in degrees.

endheader
time	pelvis_tilt	pelvis_list	pelvis_rotation	pelvis_tx	pelvis_ty	pelvis_tz	hip_flexion_r	hip_adduction_r	hip_rotation_r	knee_angle_r	ankle_angle_r	subtalar_angle_r	mtp_angle_r	hip_flexion_l	hip_adduction_l	hip_rotation_l	knee_angle_l	socket_flexion	socket_adduction	socket_rotation	socket_tx	socket_ty	socket_tz	pros_ankle_rx	pros_ankle_ry	pros_ankle_rz	pros_ankle_tx	pros_ankle_ty	pros_ankle_tz	foot_flex	lumbar_extension	lumbar_bending	lumbar_rotation
      0.60416667	     -1.05977903	     -4.80177264	      4.85979633	      0.05237950	      1.01996739	      0.33033274	     20.38414779	      5.65727966	     -8.72684501	      3.89437117	     13.48584514	     10.02793880	      6.50558374	    -17.00049547	     -5.05099722	    -10.63872111	     -8.63426383	      4.15725928	      0.16932754	     16.59530530	      0.00530352	     -0.01070615	      0.00379531	      0.00000000	      0.00000000	      0.00000000	      0.00000000	      0.00000000	      0.00000000	     13.53298961	     -8.98794710	     -0.60657618	    -33.02086105
      0.60833333	     -1.02706126	     -4.81923083	      4.99494804	      0.05837097	      1.01899820	      0.33044750	     20.55949619	      5.65080976	     -8.38337366	      3.34901775	     13.05037867	     10.06685796	      6.63145395	    -17.09810651	     -5.16463859	    -10.54377759	     -8.88893999	      4.39958294	      0.17502620	     16.55621631	      0.00621829	     -0.01063936	      0.00379146	      0.00000000	      0.00000000	      0.00000000	      0.00000000	      0.00000000	      0.00000000	     13.62716867	     -9.02723142	     -0.37852544	    -33.06537264
      0.61250000	     -1.34042189	     -4.86103712	      5.17867356	      0.06440999	      1.01748710	      0.33053633	     21.06573322	      5.62458613	     -7.98705703	      2.90189540	     12.06583239	      9.45615993	     10.03128610	    -16.82089764	     -5.32970931	    -10.02686940	     -9.22452813	      4.58623527	      0.24095542	     16.21723406	      0.00649120	     -0.01091647	      0.00339171	      0.00000000	      0.00000000	      0.00000000	      0.00000000	      0.00000000	      0.00000000	     13.65200821	     -8.63768059	     -0.29665060	    -33.21324874
      0.61666667	     -1.25566030	     -4.92078030	      5.30889806	      0.07059964	      1.01671062	      0.33064980	     21.16672325	      5.67609247	     -7.70801828	      2.29932096	     11.62223072	      9.50700210	     10.07114480	    -16.98508028	     -5.46909068	     -9.96730248	     -9.48951663	      4.84634706	      0.22808368	     16.22531286	      0.00723115	     -0.01085337	      0.00370074	      0.00000000	      0.00000000	      0.00000000	      0.00000000	      0.00000000	      0.00000000	     13.68516126	     -8.68252172	     -0.07719491	    -33.23264330
      0.62083333	     -1.16829469	     -5.00123956	      5.43113020	      0.07678033	      1.01597631	      0.33073513	     21.28535887	      5.74480381	     -7.43527558	      1.63073080	     11.13160861	      9.50798715	     10.12718374	    -17.12297798	     -5.62392870	     -9.91034533	     -9.77805305	      5.13053427	      0.21311605	     16.20610491	      0.00807661	     -0.01080931	      0.00396365	      0.00000000	      0.00000000	      0.00000000	      0.00000000	      0.00000000	      0.00000000	     13.68776595	     -8.72169239	      0.14207541	    -33.24260870
      0.62500000	     -1.12363266	     -5.12913177	      5.49968177	      0.08290063	      1.01516251	      0.33094614	     21.52323859	      5.87746183	     -7.19487841	      0.81502152	     10.47462029	      9.41074421	     10.24713635	    -17.19147241	     -5.82312205	     -9.86128323	    -10.09009495	      5.43243898	      0.20843575	     16.15722199	      0.00898051	     -0.01092606	      0.00414995	      0.00000000	      0.00000000	      0.00000000	      0.00000000	      0.00000000	      0.00000000	     13.67531449	     -8.84511737	      0.40262933	    -33.22395742
